<svg xmlns="http://www.w3.org/2000/svg" width="2000" height="1853" viewBox="0 0 2000 1853" version="1.1">
	<path d="M 969.575 1.071 C 887.450 6.945, 808.039 36.669, 742.500 86.068 C 709.531 110.917, 677.580 143.332, 653.854 176 C 595.617 256.188, 566.922 352.259, 572.029 449.957 C 572.646 461.758, 573.523 472.108, 573.977 472.958 C 575.394 475.605, 998.864 914.500, 1000.002 914.500 C 1001.144 914.500, 1424.590 475.634, 1426.013 472.975 C 1426.473 472.116, 1427.354 461.758, 1427.971 449.957 C 1429.733 416.240, 1427.042 378.598, 1420.502 345.500 C 1400.122 242.355, 1341.891 149.675, 1257.500 86.068 C 1175.431 24.210, 1072.185 -6.268, 969.575 1.071 M 407 658.611 C 403.425 658.820, 393.633 659.673, 385.239 660.508 C 219.299 677.004, 77.218 789.969, 23.082 948.448 C -6.988 1036.474, -7.644 1130.918, 21.194 1220 C 50.921 1311.824, 113.300 1393.020, 195 1446.232 C 280.252 1501.757, 382.193 1524.993, 483.522 1511.995 C 635.850 1492.456, 765.963 1392.660, 825.109 1250 L 829.876 1238.500 610.438 1238.248 L 391 1237.996 391 1154.500 L 391 1071.004 639.526 1070.752 L 888.052 1070.500 678.980 865.500 C 471.115 661.684, 469.880 660.496, 465.204 659.832 C 459.390 659.006, 415.876 658.094, 407 658.611 M 1543.178 659.043 L 1530.856 659.952 1510.066 680.226 C 1498.631 691.377, 1404.381 783.750, 1300.622 885.500 L 1111.969 1070.500 1360.484 1070.752 L 1609 1071.004 1609 1154.500 L 1609 1237.996 1389.562 1238.248 L 1170.124 1238.500 1174.891 1250 C 1214.768 1346.183, 1287.421 1424.171, 1380.588 1470.803 C 1488.874 1525.002, 1618.165 1530.152, 1731 1484.762 C 1785.015 1463.033, 1832.423 1431.648, 1874.066 1390.049 C 1922.250 1341.916, 1958.268 1283.439, 1978.806 1220 C 2007.644 1130.918, 2006.988 1036.474, 1976.918 948.448 C 1922.899 790.311, 1782.459 678.312, 1615.890 660.533 C 1597.986 658.622, 1559.559 657.835, 1543.178 659.043 M 628.500 1768.627 C 599.350 1814.068, 575.350 1851.641, 575.167 1852.123 C 574.976 1852.625, 756.778 1853, 1000 1853 C 1243.222 1853, 1425.024 1852.625, 1424.833 1852.123 C 1424.650 1851.641, 1400.650 1814.068, 1371.500 1768.627 L 1318.500 1686.008 1000 1686.008 L 681.500 1686.008 628.500 1768.627" stroke="none" fill="#000000" fill-rule="evenodd"/>
</svg>